<svg width="18" height="18" viewBox="0 0 18 18" fill="none" xmlns="http://www.w3.org/2000/svg">
<rect x="0.5" y="0.5" width="17" height="17" fill="white"/>
<rect x="0.5" y="0.5" width="17" height="17" stroke="black"/>
<path d="M13.5 10.5C13.142 10.4998 12.7892 10.5856 12.4712 10.75L11.1344 9.71C11.207 9.49413 11.246 9.26836 11.25 9.04063L11.8969 8.82563C12.2627 9.19714 12.7463 9.43005 13.2649 9.48454C13.7834 9.53903 14.3048 9.41173 14.7399 9.12438C15.175 8.83704 15.4968 8.40749 15.6503 7.90917C15.8038 7.41085 15.7794 6.87469 15.5814 6.39233C15.3834 5.90998 15.024 5.51138 14.5646 5.26466C14.1052 5.01795 13.5745 4.93843 13.063 5.03971C12.5515 5.141 12.091 5.41678 11.7603 5.81994C11.4297 6.22309 11.2493 6.72858 11.25 7.25C11.25 7.31938 11.2538 7.38813 11.26 7.45625L10.7738 7.61813C10.5636 7.34806 10.2946 7.1295 9.98721 6.97907C9.67984 6.82863 9.34221 6.75029 9 6.75C8.9375 6.75 8.8825 6.75 8.82438 6.7575L8.54625 6.1325C8.92586 5.77246 9.16812 5.29138 9.23138 4.77202C9.29463 4.25266 9.17491 3.7275 8.89282 3.28687C8.61073 2.84623 8.1839 2.51768 7.68576 2.35773C7.18761 2.19778 6.6493 2.21642 6.16342 2.41046C5.67753 2.6045 5.27446 2.9618 5.02354 3.4209C4.77261 3.87999 4.68952 4.41218 4.78856 4.92592C4.8876 5.43965 5.16257 5.90281 5.56618 6.23573C5.96979 6.56864 6.47681 6.75049 7 6.75C7.0625 6.75 7.1175 6.75 7.17562 6.7425L7.45375 7.3675C7.12425 7.67855 6.89661 8.08205 6.80078 8.52492C6.70496 8.9678 6.74543 9.42931 6.91687 9.84875L5.58687 11.0306C5.12218 10.7741 4.58176 10.6901 4.06114 10.7936C3.54053 10.897 3.07323 11.1811 2.74186 11.5958C2.41049 12.0104 2.23638 12.5289 2.2503 13.0595C2.26423 13.5901 2.4653 14.0987 2.81796 14.4954C3.17063 14.8921 3.65218 15.1513 4.17751 15.2273C4.70284 15.3032 5.23811 15.191 5.6887 14.9105C6.1393 14.63 6.47622 14.1992 6.63989 13.6942C6.80356 13.1893 6.78346 12.6428 6.58313 12.1512L7.91313 10.9694C8.26763 11.1655 8.66862 11.2621 9.07355 11.2488C9.47849 11.2355 9.87228 11.1128 10.2131 10.8938L11.4375 11.8475C11.2431 12.2914 11.1973 12.7861 11.3067 13.2582C11.4162 13.7302 11.6751 14.1543 12.0449 14.4674C12.4148 14.7805 12.8759 14.9657 13.3595 14.9957C13.8431 15.0256 14.3235 14.8987 14.7292 14.6336C15.1349 14.3686 15.4441 13.9797 15.611 13.5247C15.7778 13.0698 15.7933 12.5731 15.6552 12.1087C15.5171 11.6442 15.2327 11.2367 14.8444 10.9469C14.4561 10.657 13.9846 10.5003 13.5 10.5ZM13.5 6.5C13.6483 6.5 13.7933 6.54399 13.9167 6.6264C14.04 6.70881 14.1361 6.82594 14.1929 6.96299C14.2497 7.10003 14.2645 7.25083 14.2356 7.39632C14.2067 7.5418 14.1352 7.67544 14.0303 7.78033C13.9254 7.88522 13.7918 7.95665 13.6463 7.98559C13.5008 8.01453 13.35 7.99968 13.213 7.94291C13.0759 7.88614 12.9588 7.79001 12.8764 7.66668C12.794 7.54334 12.75 7.39834 12.75 7.25C12.75 7.05109 12.829 6.86032 12.9697 6.71967C13.1103 6.57902 13.3011 6.5 13.5 6.5ZM6.25 4.5C6.25 4.35166 6.29399 4.20666 6.3764 4.08332C6.45881 3.95999 6.57594 3.86386 6.71299 3.80709C6.85003 3.75032 7.00083 3.73547 7.14632 3.76441C7.2918 3.79335 7.42544 3.86478 7.53033 3.96967C7.63522 4.07456 7.70665 4.2082 7.73559 4.35368C7.76453 4.49917 7.74968 4.64997 7.69291 4.78701C7.63614 4.92406 7.54001 5.04119 7.41668 5.1236C7.29334 5.20601 7.14834 5.25 7 5.25C6.80109 5.25 6.61032 5.17098 6.46967 5.03033C6.32902 4.88968 6.25 4.69891 6.25 4.5ZM4.5 13.75C4.35166 13.75 4.20666 13.706 4.08332 13.6236C3.95999 13.5412 3.86386 13.4241 3.80709 13.287C3.75032 13.15 3.73547 12.9992 3.76441 12.8537C3.79335 12.7082 3.86478 12.5746 3.96967 12.4697C4.07456 12.3648 4.2082 12.2933 4.35368 12.2644C4.49917 12.2355 4.64997 12.2503 4.78701 12.3071C4.92406 12.3639 5.04119 12.46 5.1236 12.5833C5.20601 12.7067 5.25 12.8517 5.25 13C5.25 13.1989 5.17098 13.3897 5.03033 13.5303C4.88968 13.671 4.69891 13.75 4.5 13.75ZM8.25 9C8.25 8.85166 8.29399 8.70666 8.3764 8.58332C8.45881 8.45999 8.57594 8.36386 8.71299 8.30709C8.85003 8.25033 9.00083 8.23547 9.14632 8.26441C9.2918 8.29335 9.42544 8.36478 9.53033 8.46967C9.63522 8.57456 9.70665 8.7082 9.73559 8.85368C9.76453 8.99917 9.74967 9.14997 9.69291 9.28701C9.63614 9.42406 9.54001 9.54119 9.41668 9.6236C9.29334 9.70601 9.14834 9.75 9 9.75C8.80109 9.75 8.61032 9.67098 8.46967 9.53033C8.32902 9.38968 8.25 9.19891 8.25 9ZM13.5 13.5C13.3517 13.5 13.2067 13.456 13.0833 13.3736C12.96 13.2912 12.8639 13.1741 12.8071 13.037C12.7503 12.9 12.7355 12.7492 12.7644 12.6037C12.7933 12.4582 12.8648 12.3246 12.9697 12.2197C13.0746 12.1148 13.2082 12.0433 13.3537 12.0144C13.4992 11.9855 13.65 12.0003 13.787 12.0571C13.9241 12.1139 14.0412 12.21 14.1236 12.3333C14.206 12.4567 14.25 12.6017 14.25 12.75C14.25 12.9489 14.171 13.1397 14.0303 13.2803C13.8897 13.421 13.6989 13.5 13.5 13.5Z" fill="black"/>
</svg>
